<svg id="Layer_1" data-name="Layer 1" xmlns="http://www.w3.org/2000/svg" viewBox="0 0 1832.51 758.26"><defs><style>.cls-1{fill:#faaf43;}.cls-2{fill:#2c3582;}.cls-3{font-size:248.41px;fill:#932e2b;font-family:Audiowide-Regular, Audiowide;}.cls-4{letter-spacing:-0.01em;}</style></defs><title>Untitled-2</title><path class="cls-1" d="M28.35,392.47A165.84,165.84,0,0,1,42,328a222.65,222.65,0,0,1,15.42-29.28A271.22,271.22,0,0,1,76.84,272c7-8.52,14.52-16.6,22.28-24.43l6-5.73,3-2.87,3.06-2.77,6.13-5.55,6.3-5.36,3.14-2.68,3.22-2.6,6.43-5.2c2.16-1.71,4.37-3.35,6.55-5s4.36-3.38,6.61-5c4.47-3.22,8.89-6.53,13.46-9.61l6.81-4.69,6.9-4.54c36.9-24.16,76.21-44.49,116.57-62.16A1100,1100,0,0,1,417.39,78.68c21.11-6.26,42.49-11.49,63.95-16.28S524.27,53,545.85,48.87s43.22-7.82,64.91-11.19S654.2,31.36,676,28.74a2245.43,2245.43,0,0,1,525.06,0c21.78,2.62,43.53,5.55,65.22,8.94s43.34,7,64.91,11.19,43.07,8.67,64.49,13.62,42.73,10.42,63.93,16.32a1218,1218,0,0,1,125.36,42c41,16.45,81.18,35.49,119.3,58.69a516.47,516.47,0,0,1,55.16,38.31l6.57,5.31,6.43,5.52,3.21,2.76,3.13,2.87L1785,240l6.08,6c1,1,2,2,3,3l2.94,3.11c2,2.08,4,4.1,5.85,6.25l5.65,6.45a273.31,273.31,0,0,1,20.73,27.65,225.53,225.53,0,0,1,16.65,30.78,168,168,0,0,1,0,138.45,225.53,225.53,0,0,1-16.65,30.78,273.31,273.31,0,0,1-20.73,27.65l-5.65,6.45c-1.89,2.15-3.9,4.17-5.85,6.25l-2.94,3.11c-1,1-2,2-3,3l-6.08,6-6.26,5.75-3.13,2.87-3.21,2.76L1766,561.8l-6.57,5.31a516.56,516.56,0,0,1-55.16,38.32c-38.12,23.19-78.29,42.24-119.3,58.68a1213.17,1213.17,0,0,1-125.36,42q-31.8,8.85-63.93,16.32t-64.49,13.63c-21.57,4.17-43.22,7.81-64.91,11.19s-43.44,6.31-65.22,8.93A2211.44,2211.44,0,0,1,938.51,771.6,2211.44,2211.44,0,0,1,676,756.19c-21.78-2.62-43.53-5.55-65.22-8.93s-43.35-7-64.91-11.19-43.06-8.73-64.51-13.57l-16.07-3.69-16-3.9c-5.34-1.31-10.64-2.78-15.95-4.22s-10.58-3-15.86-4.57A1107.68,1107.68,0,0,1,293.32,661c-40.35-17.67-79.66-38-116.56-62.1l-6.91-4.53L163,589.66c-4.58-3.07-9-6.39-13.46-9.6-2.26-1.58-4.41-3.3-6.61-5s-4.4-3.32-6.56-5L130,564.89l-3.21-2.6-3.15-2.68-6.3-5.35-6.13-5.54L108.12,546l-3-2.87-6-5.72c-7.76-7.83-15.29-15.89-22.3-24.41a269.91,269.91,0,0,1-19.42-26.77A220.73,220.73,0,0,1,42,456.92,165.84,165.84,0,0,1,28.35,392.47Zm4.61,0a154.34,154.34,0,0,0,13.78,62.38A200.77,200.77,0,0,0,62.37,483l4.6,6.63c1.54,2.2,3.25,4.28,4.86,6.43.83,1.06,1.62,2.14,2.47,3.19l2.59,3.09,2.59,3.09c.86,1,1.72,2.07,2.64,3.05l5.42,6c1.81,2,3.77,3.85,5.64,5.78L96,523.1c1,.95,2,1.85,2.93,2.78l5.88,5.53,6.06,5.34,3.05,2.65,3.13,2.55,6.26,5.1,6.41,4.92a477,477,0,0,0,54.12,35.24c37.56,21.17,77.25,38.37,117.74,53.12s81.87,27.11,123.63,37.85c5.21,1.38,10.44,2.71,15.66,4s10.43,2.74,15.67,4l15.67,4,15.71,3.86c21,5,42.16,9.35,63.37,13.45s42.52,7.69,63.88,11,42.79,6.22,64.26,8.8a2183.14,2183.14,0,0,0,259.07,15.2,2182.85,2182.85,0,0,0,259.06-15.2c21.48-2.58,42.91-5.47,64.26-8.8s42.68-6.91,63.89-11,42.35-8.52,63.38-13.39,41.93-10.22,62.7-16a1186.2,1186.2,0,0,0,122.37-41c39.84-16,78.66-34.42,115-56.54a487.41,487.41,0,0,0,52.12-36.18l6.13-5,6-5.13,3-2.56,2.89-2.65,5.78-5.3,5.57-5.48c.92-.92,1.88-1.82,2.78-2.75l2.67-2.83c1.77-1.9,3.61-3.74,5.32-5.69l5.11-5.83a244.57,244.57,0,0,0,18.45-24.6,198.16,198.16,0,0,0,14.42-26.61,139.05,139.05,0,0,0,0-115.24,198.27,198.27,0,0,0-14.42-26.62,245.71,245.71,0,0,0-18.45-24.6l-5.11-5.83c-1.71-1.95-3.55-3.79-5.32-5.69l-2.67-2.82c-.9-.94-1.86-1.84-2.78-2.75l-5.57-5.48-5.78-5.31-2.89-2.64-3-2.57-6-5.12-6.13-5a487.41,487.41,0,0,0-52.12-36.18c-36.34-22.12-75.16-40.57-115-56.54a1188.6,1188.6,0,0,0-122.37-41q-31.15-8.67-62.7-16t-63.38-13.39c-21.21-4.1-42.53-7.69-63.89-11s-42.78-6.23-64.26-8.81a2216.77,2216.77,0,0,0-518.13,0C658,60.11,636.54,63,615.18,66.34s-42.67,6.91-63.88,11-42.36,8.47-63.36,13.48l-15.72,3.86-15.67,4c-5.23,1.3-10.42,2.74-15.65,4.07s-10.43,2.73-15.64,4.09c-41.74,10.79-83.1,23.14-123.59,37.92s-80.17,31.92-117.73,53.06A476,476,0,0,0,129.79,233L123.38,238l-6.26,5.1L114,245.6l-3,2.65-6.07,5.32L99,259.1c-1,.93-2,1.83-2.93,2.78l-2.84,2.86c-1.87,1.93-3.82,3.8-5.64,5.78l-5.43,6c-.92,1-1.78,2-2.64,3l-2.59,3.1-2.59,3.09c-.84,1-1.64,2.12-2.47,3.18-1.62,2.15-3.31,4.24-4.87,6.43L62.39,302a201.29,201.29,0,0,0-15.64,28.13A154.36,154.36,0,0,0,33,392.47Z" transform="translate(-28.35 -13.34)"/><path class="cls-2" d="M1807.38,386.33a126.35,126.35,0,0,1-4,31.15,147.52,147.52,0,0,1-11.08,29.32c-2.31,4.7-5,9.19-7.63,13.68l-4.26,6.56c-1.46,2.16-3,4.23-4.54,6.36a248.88,248.88,0,0,1-20.1,23.84c-.87,1-1.79,1.89-2.71,2.79l-2.76,2.75-2.75,2.76c-.92.92-1.89,1.78-2.83,2.68l-5.69,5.31-5.86,5.11c-1,.85-2,1.72-3,2.55l-3,2.46c-2,1.65-4,3.32-6,4.93-4.11,3.15-8.14,6.43-12.36,9.43a545.08,545.08,0,0,1-52.07,33.85c-35.89,20.67-73.6,38-112.11,53a1143.33,1143.33,0,0,1-117.87,38.3c-20,5.32-40.15,9.63-60.38,13.67s-40.47,7.92-60.78,11.37-40.68,6.63-61.08,9.41-40.84,5.35-61.31,7.51A2324.84,2324.84,0,0,1,936.8,718.09a2324.89,2324.89,0,0,1-246.45-12.93c-20.47-2.16-40.9-4.71-61.31-7.51s-40.76-5.94-61.08-9.41Q507,677.91,446.83,663.09c-40.07-10-79.8-21.58-118.88-35.43s-77.48-30-114.41-49.68a525.38,525.38,0,0,1-53.82-32.77c-4.38-3-8.59-6.19-12.87-9.31-2.11-1.59-4.19-3.26-6.28-4.89l-3.14-2.46c-1-.82-2.05-1.7-3.08-2.55l-6.13-5.13-6-5.35c-1-.9-2-1.76-3-2.69l-2.91-2.8-2.9-2.79c-1-.93-1.94-1.86-2.87-2.85L105,498.56c-1.85-2-3.62-4-5.43-6.06-.89-1-1.82-2-2.67-3.07l-2.59-3.17c-1.71-2.12-3.47-4.2-5.06-6.44a183.33,183.33,0,0,1-17.72-28,154.92,154.92,0,0,1-12.14-31.53,132.42,132.42,0,0,1,0-67.93A155.15,155.15,0,0,1,71.5,320.83a183.33,183.33,0,0,1,17.72-28c1.59-2.24,3.35-4.31,5.06-6.44l2.59-3.17c.85-1.06,1.78-2,2.67-3.07,1.81-2,3.58-4.08,5.43-6l5.61-5.84c.93-1,1.89-1.92,2.87-2.85l2.9-2.79,2.91-2.79c1-.93,2-1.8,3-2.7l6-5.35,6.13-5.13c1-.85,2-1.73,3.08-2.55l3.14-2.46c2.09-1.63,4.17-3.3,6.28-4.89,4.28-3.12,8.49-6.36,12.87-9.31a529,529,0,0,1,53.82-32.77C250.47,175,288.9,158.88,328,145s78.81-25.46,118.88-35.43S527.33,91.3,568,84.41Q598.44,79.21,629,75c20.41-2.8,40.84-5.34,61.31-7.5a2355.08,2355.08,0,0,1,492.89,0c20.47,2.16,40.9,4.7,61.31,7.5s40.76,5.94,61.08,9.41c10.16,1.7,20.29,3.58,30.43,5.45l15.18,2.92,15.17,3c5.06,1,10.11,2,15.16,3.1l7.57,1.57,7.56,1.69c10.07,2.23,20.08,4.76,30.06,7.39a1155.33,1155.33,0,0,1,117.83,38.38c38.5,15,76.22,32.34,112.11,53a542.88,542.88,0,0,1,52.09,33.79c4.22,3,8.25,6.27,12.36,9.41,2,1.61,4,3.29,6,4.93l3,2.46c1,.82,2,1.69,2.94,2.54l5.87,5.11,5.69,5.31c.94.89,1.91,1.75,2.83,2.67l2.76,2.75,2.76,2.75c.92.91,1.84,1.83,2.71,2.79a248.86,248.86,0,0,1,20.11,23.83c1.51,2.12,3.09,4.2,4.54,6.36l4.27,6.56c2.67,4.48,5.32,9,7.63,13.67a147.46,147.46,0,0,1,11.09,29.31A126.37,126.37,0,0,1,1807.38,386.33Zm-6.45,0a116.33,116.33,0,0,0-3.93-29.51A134.31,134.31,0,0,0,1786.09,329a161.68,161.68,0,0,0-16.33-25.16c-1.48-2-3.13-3.92-4.73-5.86s-3.21-3.85-4.94-5.68-3.38-3.72-5.12-5.53l-5.33-5.34c-.87-.91-1.79-1.77-2.72-2.62l-2.76-2.57-2.77-2.56c-.92-.85-1.9-1.65-2.85-2.48l-5.74-4.91-5.9-4.72c-1-.79-2-1.59-3-2.35l-3-2.27c-2-1.5-4-3-6.08-4.49-4.16-2.87-8.22-5.85-12.48-8.56a484.24,484.24,0,0,0-52.64-30c-36.29-17.83-74.2-32.27-112.73-44.6s-77.72-22.7-117.21-31.67L1390.16,131c-4.93-1.17-9.87-2.28-14.81-3.38s-9.88-2.25-14.85-3.27c-19.81-4.25-39.77-7.89-59.76-11.32s-40-6.53-60.15-9.27-40.26-5.27-60.45-7.4a2326.79,2326.79,0,0,0-486.69,0c-20.19,2.13-40.34,4.64-60.45,7.4s-40.16,5.85-60.15,9.27q-60,10.17-119,24.71c-39.29,9.77-78.15,21.14-116.16,34.61s-75.18,29.12-110.44,47.92a496.83,496.83,0,0,0-50.89,31c-4.11,2.76-8,5.77-12,8.66-2,1.48-3.87,3-5.81,4.53l-2.9,2.27c-1,.75-1.88,1.56-2.82,2.34l-5.63,4.7-5.45,4.87c-.9.82-1.83,1.61-2.71,2.45l-2.61,2.53-2.63,2.52c-.88.83-1.75,1.67-2.57,2.56l-5,5.21c-1.64,1.76-3.19,3.58-4.8,5.36-.79.91-1.62,1.78-2.36,2.71l-2.26,2.78c-1.5,1.85-3,3.67-4.42,5.6a154.7,154.7,0,0,0-15,23.75,125.84,125.84,0,0,0-9.87,25.58,103.23,103.23,0,0,0,0,53.38,126,126,0,0,0,9.87,25.57,154.7,154.7,0,0,0,15,23.75c1.37,1.93,2.92,3.75,4.42,5.61l2.26,2.77c.74.93,1.57,1.8,2.36,2.71,1.61,1.78,3.16,3.61,4.8,5.36l5,5.22c.82.88,1.69,1.72,2.57,2.56l2.63,2.52,2.61,2.52c.88.84,1.81,1.63,2.71,2.45l5.45,4.87,5.63,4.71c.94.77,1.86,1.58,2.82,2.34l2.9,2.27c1.94,1.5,3.85,3,5.81,4.52,4,2.9,7.88,5.9,12,8.67a498.53,498.53,0,0,0,50.89,31c35.26,18.8,72.45,34.42,110.44,47.92s76.87,24.84,116.16,34.61,79,17.93,119,24.71q30,5.13,60.15,9.27c20.11,2.76,40.26,5.27,60.45,7.4A2293.68,2293.68,0,0,0,936.8,689.09a2293.63,2293.63,0,0,0,243.34-12.77c20.19-2.13,40.34-4.64,60.45-7.4s40.16-5.85,60.15-9.27,40-7.07,59.76-11.34,39.51-9,59.25-13.48c39.46-9,78.63-19.4,117.16-31.74s76.44-26.74,112.73-44.56c2.29-1.08,4.53-2.24,6.77-3.4l6.74-3.47c4.45-2.38,8.9-4.78,13.3-7.25l6.55-3.79c1.09-.64,2.2-1.26,3.28-1.91l3.22-2,6.46-4,6.34-4.13c4.26-2.71,8.32-5.69,12.48-8.55,2-1.46,4-3,6.08-4.49s4.05-3,6-4.6l5.9-4.72,5.74-4.91c1-.83,1.93-1.62,2.85-2.48l2.78-2.55,2.76-2.57c.93-.85,1.85-1.71,2.72-2.61l5.33-5.35c1.75-1.8,3.41-3.68,5.12-5.52.84-.93,1.73-1.83,2.53-2.8l2.42-2.88c1.6-1.93,3.26-3.82,4.73-5.85a162.86,162.86,0,0,0,16.34-25.15A134.35,134.35,0,0,0,1797,415.83,116.25,116.25,0,0,0,1800.93,386.33Z" transform="translate(-28.35 -13.34)"/><text class="cls-3" transform="translate(574.06 450.01) scale(1.1 1)">KS<tspan class="cls-4" x="395.42" y="0">R</tspan></text></svg>